# Blender 5.1.2
# www.blender.org
mtllib boat_model.mtl
o Boat
v -0.359650 0.150434 0.399203
v -0.285216 0.150434 0.399203
v -0.359650 0.121703 0.307622
v -0.285216 0.121703 0.307622
v -0.359650 0.046487 0.251021
v -0.285216 0.046487 0.251021
v -0.359650 -0.046486 0.251021
v -0.285216 -0.046486 0.251021
v -0.359650 -0.121703 0.307621
v -0.285216 -0.121703 0.307621
v -0.359650 -0.150434 0.399203
v -0.285216 -0.150434 0.399203
v -0.359650 -0.121703 0.490784
v -0.285216 -0.121703 0.490784
v -0.359650 -0.046487 0.547384
v -0.285216 -0.046487 0.547384
v -0.359650 0.046486 0.547384
v -0.285216 0.046486 0.547384
v -0.359650 0.121703 0.490784
v -0.285216 0.121703 0.490784
v 0.123864 -0.013665 0.000545
v -0.263223 -0.135062 0.000545
v -0.018267 -0.116597 0.000545
v 0.609706 -0.135326 0.202922
v 0.609706 -0.135326 0.240811
v -0.148388 -0.289004 0.240811
v -0.546858 -0.249891 0.240811
v 0.178130 -0.270539 0.240811
v -0.546858 -0.249891 0.202922
v -0.148388 -0.289004 0.202922
v 0.178130 -0.270539 0.202922
v -0.503383 -0.211880 0.193637
v -0.147359 -0.250993 0.193637
v 0.178799 -0.232527 0.193637
v 0.547898 -0.113455 0.193637
v 0.100918 -0.036780 0.000545
v 0.573088 -0.161272 0.240811
v 0.573088 -0.161272 0.202922
v 0.520930 -0.131457 0.193637
v -0.362788 -0.133122 0.000545
v -0.477619 -0.160803 0.047799
v -0.392647 -0.170669 0.036014
v -0.156028 -0.176018 0.068760
v 0.087845 -0.157552 0.068760
v 0.342291 -0.048919 0.068760
v 0.317925 -0.070227 0.068760
v -0.373336 -0.146387 0.013075
v -0.510918 -0.272374 0.240811
v -0.510918 -0.272374 0.202922
v -0.470797 -0.234363 0.193637
v -0.462759 -0.169832 0.046868
v -0.463198 -0.000000 0.046701
v -0.462759 -0.169832 0.046868
v 0.123864 0.013665 0.000545
v -0.263223 0.135062 0.000545
v -0.018267 0.116597 0.000545
v 0.609706 0.135326 0.202922
v 0.609706 0.135326 0.240811
v -0.148388 0.289004 0.240811
v -0.546858 0.249891 0.240811
v 0.178130 0.270539 0.240811
v -0.546858 0.249891 0.202922
v -0.148388 0.289004 0.202922
v 0.178130 0.270539 0.202922
v -0.503383 0.211880 0.193637
v -0.147359 0.250993 0.193637
v 0.178799 0.232527 0.193637
v 0.547898 0.113455 0.193637
v 0.100918 0.036780 0.000545
v 0.573088 0.161272 0.240811
v 0.573088 0.161272 0.202922
v 0.520930 0.131457 0.193637
v -0.362788 0.133122 0.000545
v -0.477619 0.160803 0.047799
v -0.392647 0.170669 0.036014
v -0.156028 0.176018 0.068760
v 0.087845 0.157552 0.068760
v 0.342291 0.048919 0.068760
v 0.317925 0.070227 0.068760
v -0.373336 0.146387 0.013075
v -0.510918 0.272374 0.240811
v -0.510918 0.272374 0.202922
v -0.470797 0.234363 0.193637
v -0.462759 0.169831 0.046868
v -0.462759 0.169831 0.046868
v -0.050664 0.002182 1.003956
v -0.050664 0.002182 0.234867
v -0.022376 0.002182 1.003956
v -0.022376 0.002182 0.234867
v -0.050664 -0.026107 1.003956
v -0.050664 -0.026107 0.234867
v -0.022376 -0.026107 1.003956
v -0.022376 -0.026107 0.234867
v -0.502642 0.172087 0.237979
v -0.481354 0.198304 0.237979
v -0.481354 0.198304 0.252198
v -0.502642 0.172087 0.252198
v -0.201896 0.198304 0.237979
v -0.180608 0.172087 0.237979
v -0.180608 0.172087 0.252198
v -0.201896 0.198304 0.252198
v -0.481354 -0.198304 0.237979
v -0.502642 -0.172087 0.237979
v -0.502642 -0.172087 0.252198
v -0.481354 -0.198304 0.252198
v -0.180608 -0.172087 0.237979
v -0.201896 -0.198304 0.237979
v -0.201896 -0.198304 0.252198
v -0.180608 -0.172087 0.252198
v -0.126134 0.132910 0.239598
v -0.102556 0.153159 0.239598
v -0.102556 0.153159 0.250579
v -0.126134 0.132910 0.250579
v 0.206963 0.153159 0.239598
v 0.230541 0.132910 0.239598
v 0.230541 0.132910 0.250579
v 0.206963 0.153159 0.250579
v -0.102556 -0.153159 0.239598
v -0.126134 -0.132910 0.239598
v -0.126134 -0.132910 0.250579
v -0.102556 -0.153159 0.250579
v 0.230541 -0.132910 0.239598
v 0.206963 -0.153159 0.239598
v 0.206963 -0.153159 0.250579
v 0.230541 -0.132910 0.250579
vn -0.0000 0.9541 -0.2993
vn -0.0000 0.6013 -0.7990
vn -0.0000 -0.0000 -1.0000
vn -0.0000 -0.6013 -0.7990
vn -0.0000 -0.9541 -0.2993
vn -0.0000 -0.9541 0.2993
vn -0.0000 -0.6013 0.7990
vn -0.0000 -0.0000 1.0000
vn 1.0000 -0.0000 -0.0000
vn -0.0000 0.6013 0.7990
vn -0.0000 0.9541 0.2993
vn -1.0000 -0.0000 -0.0000
vn 0.2981 -0.0000 -0.9545
vn 0.0565 -0.9984 -0.0000
vn 0.2666 -0.9638 -0.0000
vn 0.0548 -0.8463 -0.5300
vn -0.7650 -0.0000 -0.6440
vn 0.2341 -0.7109 -0.6632
vn 0.3543 -0.4627 -0.8126
vn 0.5781 -0.8159 -0.0000
vn -0.0626 -0.0000 -0.9980
vn -0.0458 -0.9989 -0.0000
vn -0.9848 -0.0000 -0.1740
vn -0.0112 -0.2315 -0.9728
vn 0.0134 -0.2376 -0.9713
vn 0.0625 -0.2191 -0.9737
vn 0.0969 -0.1403 -0.9854
vn -0.2089 -0.0000 -0.9779
vn -0.0516 -0.9168 -0.3960
vn 0.5191 -0.0000 -0.8547
vn 0.0191 -0.8193 -0.5730
vn 0.0578 -0.8307 -0.5537
vn 0.1486 -0.0000 -0.9889
vn 0.2498 -0.2660 -0.9311
vn 0.2379 -0.4971 -0.8345
vn -0.1530 -0.0000 -0.9882
vn 0.0612 -0.8106 -0.5824
vn -0.5200 -0.7722 -0.3652
vn -0.0918 -0.1399 -0.9859
vn -0.5303 -0.8478 -0.0000
vn 0.0565 0.9984 -0.0000
vn 0.2666 0.9638 -0.0000
vn 0.0548 0.8463 -0.5300
vn 0.2341 0.7109 -0.6632
vn 0.3543 0.4627 -0.8126
vn 0.5781 0.8159 -0.0000
vn -0.0458 0.9989 -0.0000
vn -0.0112 0.2315 -0.9728
vn 0.0134 0.2376 -0.9713
vn 0.0625 0.2191 -0.9737
vn 0.0969 0.1403 -0.9854
vn -0.0516 0.9168 -0.3960
vn 0.0191 0.8193 -0.5730
vn 0.0578 0.8307 -0.5537
vn 0.2498 0.2660 -0.9311
vn 0.2379 0.4971 -0.8345
vn 0.0612 0.8106 -0.5824
vn -0.5200 0.7722 -0.3652
vn -0.0918 0.1399 -0.9859
vn -0.5303 0.8478 -0.0000
vn -0.0000 1.0000 -0.0000
vn -0.0000 -1.0000 -0.0000
vn 0.7763 -0.6303 -0.0000
vn 0.7763 0.6303 -0.0000
vn -0.7763 0.6303 -0.0000
vn -0.7763 -0.6303 -0.0000
vn -0.6515 0.7586 -0.0000
vn 0.6515 0.7586 -0.0000
vn 0.6515 -0.7586 -0.0000
vn -0.6515 -0.7586 -0.0000
vt 0.907671 0.795333
vt 0.941469 0.772354
vt 0.970735 0.816003
vt 0.936608 0.838843
vt 0.977212 0.838200
vt 0.977449 0.889640
vt 0.936113 0.890077
vt 0.968413 0.914828
vt 0.937299 0.955123
vt 0.904536 0.930065
vt 0.915173 0.969329
vt 0.865398 0.982847
vt 0.854363 0.943091
vt 0.840147 0.981279
vt 0.790826 0.962911
vt 0.805038 0.924253
vt 0.771634 0.947511
vt 0.741480 0.904355
vt 0.775141 0.880542
vt 0.734591 0.880384
vt 0.734591 0.828769
vt 0.775984 0.828340
vt 0.743212 0.804866
vt 0.772668 0.763310
vt 0.807065 0.786805
vt 0.527322 0.884672
vt 0.606325 0.998195
vt 0.557498 0.980862
vt 0.527322 0.937500
vt 0.802954 0.744094
vt 0.853335 0.736879
vt 0.858865 0.775783
vt 0.874239 0.737722
vt 0.923138 0.757490
vt 0.655151 0.844570
vt 0.685328 0.887932
vt 0.685327 0.940761
vt 0.655151 0.982877
vt 0.606325 0.827237
vt 0.557498 0.842555
vt 0.028594 0.716176
vt 0.026052 0.567509
vt 0.046892 0.567182
vt 0.049457 0.715893
vt 0.284956 0.823591
vt 0.351228 0.866162
vt 0.351947 0.906626
vt 0.287044 0.951794
vt 0.663195 0.787472
vt 0.666659 0.488449
vt 0.686332 0.501245
vt 0.683063 0.775580
vt 0.426533 0.019404
vt 0.436993 0.008069
vt 0.555164 0.078831
vt 0.516184 0.116006
vt 0.286661 0.806613
vt 0.287103 0.785709
vt 0.464944 0.793403
vt 0.464562 0.814200
vt 0.707205 0.501862
vt 0.703881 0.776142
vt 0.064912 0.750062
vt 0.069872 0.729783
vt 0.282126 0.805936
vt 0.066732 0.552397
vt 0.284147 0.486783
vt 0.361944 0.085487
vt 0.382707 0.177771
vt 0.221709 0.144039
vt 0.223012 0.067144
vt 0.086776 0.809593
vt 0.095818 0.816847
vt 0.096959 0.963504
vt 0.087970 0.970843
vt 0.498189 0.116322
vt 0.559972 0.236094
vt 0.150382 0.815369
vt 0.151996 0.964084
vt 0.364081 0.878652
vt 0.364349 0.893686
vt 0.578068 0.238140
vt 0.037757 0.733195
vt 0.058175 0.747008
vt 0.024211 0.978968
vt 0.023039 0.801947
vt 0.031201 0.796924
vt 0.032439 0.983926
vt 0.663607 0.808345
vt 0.465344 0.814230
vt 0.070210 0.796306
vt 0.071529 0.984269
vt 0.465849 0.475816
vt 0.823428 0.429020
vt 0.597351 0.420983
vt 0.621099 0.338380
vt 0.801651 0.345958
vt 0.051556 0.152214
vt 0.219665 0.165520
vt 0.035622 0.176838
vt 0.373674 0.196944
vt 0.570750 0.266016
vt 0.592008 0.271804
vt 0.841346 0.454061
vt 0.580083 0.446475
vt 0.047495 0.064314
vt 0.086651 0.053223
vt 0.671788 0.157508
vt 0.097802 0.034273
vt 0.103259 0.024045
vt 0.160676 0.022383
vt 0.702659 0.176596
vt 0.407055 0.021704
vt 0.312562 0.028597
vt 0.037826 0.064277
vt 0.029531 0.148130
vt 0.013608 0.174790
vt 0.693888 0.793316
vt 0.673903 0.805456
vt 0.283049 0.465942
vt 0.464561 0.455017
vt 0.060552 0.532497
vt 0.277850 0.466885
vt 0.285107 0.295680
vt 0.425321 0.296474
vt 0.415013 0.370878
vt 0.248768 0.383079
vt 0.146334 0.297888
vt 0.057418 0.400010
vt 0.128806 0.293374
vt 0.039606 0.397599
vt 0.034179 0.550887
vt 0.053845 0.535758
vt 0.668079 0.467656
vt 0.467409 0.455007
vt 0.573886 0.411015
vt 0.576866 0.436971
vt 0.414295 0.392070
vt 0.254594 0.403559
vt 0.038202 0.426451
vt 0.013918 0.422666
vt 0.609515 0.333597
vt 0.566558 0.306541
vt 0.493846 0.262311
vt 0.552417 0.274015
vt 0.556958 0.285277
vt 0.237532 0.219160
vt 0.255107 0.225352
vt 0.341540 0.246311
vt 0.697768 0.483855
vt 0.678240 0.471058
vt 0.924690 0.024043
vt 0.940262 0.023988
vt 0.940277 0.447328
vt 0.924709 0.447326
vt 0.955836 0.023943
vt 0.955843 0.447326
vt 0.971415 0.024052
vt 0.971413 0.447331
vt 0.986984 0.024101
vt 0.986984 0.447301
vt 0.956921 0.008006
vt 0.972241 0.008869
vt 0.898078 0.048709
vt 0.720818 0.048693
vt 0.732572 0.034270
vt 0.886363 0.034268
vt 0.898073 0.238134
vt 0.720798 0.238144
vt 0.886326 0.252561
vt 0.732588 0.252559
vt 0.886305 0.026440
vt 0.732588 0.026447
vt 0.905901 0.238081
vt 0.905901 0.048741
vt 0.726668 0.257563
vt 0.714832 0.243329
vt 0.712991 0.048743
vt 0.712974 0.238110
vt 0.732640 0.260387
vt 0.886304 0.260384
vt 0.726519 0.029316
vt 0.714776 0.043712
vt 0.892521 0.029389
vt 0.904151 0.043822
vt 0.892377 0.257514
vt 0.904118 0.243114
vt 0.925382 0.690650
vt 0.925449 0.494357
vt 0.936592 0.507369
vt 0.936538 0.677703
vt 0.779108 0.690706
vt 0.779102 0.494349
vt 0.767962 0.677701
vt 0.767965 0.507365
vt 0.942583 0.677657
vt 0.942634 0.507399
vt 0.779173 0.696752
vt 0.925382 0.696691
vt 0.925390 0.488310
vt 0.779108 0.488307
vt 0.761920 0.507413
vt 0.761920 0.677675
vt 0.941076 0.681739
vt 0.929904 0.694617
vt 0.941168 0.503405
vt 0.930042 0.490444
vt 0.763359 0.503523
vt 0.774371 0.490511
vt 0.763388 0.681669
vt 0.774519 0.694623
s 0
usemtl Material
f 1/1/1 2/2/1 4/3/1 3/4/1
f 3/4/2 4/5/2 6/6/2 5/7/2
f 5/7/3 6/8/3 8/9/3 7/10/3
f 7/10/4 8/11/4 10/12/4 9/13/4
f 9/13/5 10/14/5 12/15/5 11/16/5
f 11/16/6 12/17/6 14/18/6 13/19/6
f 13/19/7 14/20/7 16/21/7 15/22/7
f 15/22/8 16/23/8 18/24/8 17/25/8
f 10/26/9 16/27/9 14/28/9 12/29/9
f 17/25/10 18/30/10 20/31/10 19/32/10
f 19/32/11 20/33/11 2/34/11 1/1/11
f 3/4/12 5/7/12 7/10/12 9/13/12
f 4/35/9 2/36/9 20/37/9 18/38/9
f 6/39/9 4/35/9 10/26/9 8/40/9
f 10/26/9 4/35/9 18/38/9 16/27/9
f 15/22/12 9/13/12 11/16/12 13/19/12
f 3/4/12 9/13/12 15/22/12 17/25/12
f 1/1/12 3/4/12 17/25/12 19/32/12
f 24/41/9 57/42/9 58/43/9 25/44/9
f 56/45/3 69/46/3 36/47/3 23/48/3
f 48/49/8 81/50/8 60/51/8 27/52/8
f 21/53/13 54/54/13 78/55/13 45/56/13
f 31/57/14 28/58/14 26/59/14 30/60/14
f 62/61/12 29/62/12 27/52/12 60/51/12
f 38/63/15 37/64/15 28/58/15 31/65/15
f 70/66/8 61/67/8 28/58/8 37/64/8
f 44/68/16 34/69/16 33/70/16 43/71/16
f 80/72/17 73/73/17 40/74/17 47/75/17
f 46/76/18 39/77/18 34/69/18 44/68/18
f 55/78/3 56/45/3 23/48/3 22/79/3
f 69/46/3 54/80/3 21/81/3 36/47/3
f 45/56/19 35/82/19 39/77/19 46/76/19
f 24/83/20 25/44/20 37/64/20 38/84/20
f 41/85/21 74/86/21 84/87/21 51/88/21
f 49/89/22 30/90/22 26/59/22 48/49/22
f 75/91/17 80/72/17 47/75/17 42/92/17
f 26/59/8 59/93/8 81/50/8 48/49/8
f 32/94/23 65/95/23 74/96/23 41/97/23
f 50/98/24 33/70/24 30/99/24 49/100/24
f 30/99/25 33/70/25 34/69/25 31/101/25
f 31/101/26 34/69/26 39/77/26 38/102/26
f 38/102/27 39/77/27 35/82/27 24/103/27
f 29/104/28 62/105/28 65/95/28 32/94/28
f 51/106/29 42/107/29 33/70/29 50/98/29
f 45/56/30 78/55/30 68/108/30 35/82/30
f 73/73/3 55/78/3 22/79/3 40/74/3
f 43/71/31 47/109/31 40/110/31 22/111/31
f 33/70/32 42/107/32 47/109/32 43/71/32
f 57/112/33 24/103/33 35/82/33 68/108/33
f 21/53/34 45/56/34 46/76/34 36/113/34
f 36/113/35 46/76/35 44/68/35 23/114/35
f 51/88/36 84/87/36 75/91/36 42/92/36
f 23/114/37 44/68/37 43/71/37 22/111/37
f 41/115/38 51/106/38 50/98/38 32/116/38
f 32/116/39 50/98/39 49/100/39 29/117/39
f 59/93/8 26/59/8 28/58/8 61/67/8
f 29/118/40 49/119/40 48/49/40 27/52/40
f 64/120/41 63/121/41 59/93/41 61/67/41
f 71/122/42 64/123/42 61/67/42 70/66/42
f 77/124/43 76/125/43 66/126/43 67/127/43
f 79/128/44 77/124/44 67/127/44 72/129/44
f 78/130/45 79/128/45 72/129/45 68/131/45
f 57/132/46 71/133/46 70/66/46 58/43/46
f 82/134/47 81/50/47 59/93/47 63/135/47
f 83/136/48 82/137/48 63/138/48 66/126/48
f 63/138/49 64/139/49 67/127/49 66/126/49
f 64/139/50 71/140/50 72/129/50 67/127/50
f 71/140/51 57/141/51 68/131/51 72/129/51
f 84/142/52 83/136/52 66/126/52 75/143/52
f 76/125/53 55/144/53 73/145/53 80/146/53
f 66/126/54 76/125/54 80/146/54 75/143/54
f 54/147/55 69/148/55 79/128/55 78/130/55
f 69/148/56 56/149/56 77/124/56 79/128/56
f 56/149/57 55/144/57 76/125/57 77/124/57
f 74/96/58 65/95/58 83/136/58 84/142/58
f 65/95/59 62/105/59 82/137/59 83/136/59
f 62/150/60 60/51/60 81/50/60 82/151/60
f 70/66/8 37/64/8 25/44/8 58/43/8
f 86/152/61 88/153/61 89/154/61 87/155/61
f 88/153/9 92/156/9 93/157/9 89/154/9
f 92/156/62 90/158/62 91/159/62 93/157/62
f 90/158/12 86/160/12 87/161/12 91/159/12
f 88/162/8 86/163/8 90/158/8 92/156/8
f 97/164/8 100/165/8 101/166/8 96/167/8
f 104/168/8 109/169/8 100/165/8 97/164/8
f 105/170/8 108/171/8 109/169/8 104/168/8
f 95/172/61 96/167/61 101/166/61 98/173/61
f 103/174/12 104/168/12 97/164/12 94/175/12
f 108/171/63 107/176/63 106/177/63 109/169/63
f 99/178/9 100/165/9 109/169/9 106/179/9
f 107/180/62 108/171/62 105/170/62 102/181/62
f 98/182/64 101/166/64 100/165/64 99/183/64
f 97/164/65 96/167/65 95/184/65 94/185/65
f 102/186/66 105/170/66 104/168/66 103/187/66
f 113/188/8 116/189/8 117/190/8 112/191/8
f 120/192/8 125/193/8 116/189/8 113/188/8
f 121/194/8 124/195/8 125/193/8 120/192/8
f 111/196/61 112/191/61 117/190/61 114/197/61
f 119/198/12 120/192/12 113/188/12 110/199/12
f 115/200/9 116/189/9 125/193/9 122/201/9
f 123/202/62 124/195/62 121/194/62 118/203/62
f 113/188/67 112/191/67 111/204/67 110/205/67
f 114/206/68 117/190/68 116/189/68 115/207/68
f 124/195/69 123/208/69 122/209/69 125/193/69
f 118/210/70 121/194/70 120/192/70 119/211/70
l 53 52
l 85 52
