# Blender 5.1.2
# www.blender.org
o Boat
v 0.123864 -0.013665 0.000545
v -0.018267 -0.116597 0.000545
v 0.609706 -0.135326 0.202922
v 0.609706 -0.135326 0.240811
v -0.148388 -0.289004 0.240811
v -0.546858 -0.249891 0.240811
v 0.178130 -0.270539 0.240811
v -0.546858 -0.249891 0.202922
v -0.148388 -0.289004 0.202922
v 0.178130 -0.270539 0.202922
v -0.503383 -0.211880 0.193637
v -0.147359 -0.250993 0.193637
v 0.178799 -0.232527 0.193637
v 0.547898 -0.113455 0.193637
v -0.362788 -0.133122 0.000545
v -0.477619 -0.160803 0.047799
v 0.123864 0.013665 0.000545
v -0.018267 0.116597 0.000545
v 0.609706 0.135326 0.202922
v 0.609706 0.135326 0.240811
v -0.148388 0.289004 0.240811
v -0.546858 0.249891 0.240811
v 0.178130 0.270539 0.240811
v -0.546858 0.249891 0.202922
v -0.148388 0.289004 0.202922
v 0.178130 0.270539 0.202922
v -0.503383 0.211880 0.193637
v -0.147359 0.250993 0.193637
v 0.178799 0.232527 0.193637
v 0.547898 0.113455 0.193637
v -0.362788 0.133122 0.000545
v -0.477619 0.160803 0.047799
vn 1.0000 -0.0000 -0.0000
vn 0.0565 -0.9984 -0.0000
vn -1.0000 -0.0000 -0.0000
vn -0.9848 -0.0000 -0.1740
vn 0.0134 -0.2376 -0.9713
vn -0.2089 -0.0000 -0.9779
vn 0.1486 -0.0000 -0.9889
vn -0.0000 -0.0000 1.0000
vn 0.0565 0.9984 -0.0000
vn 0.0134 0.2376 -0.9713
vn -0.0977 -0.9952 -0.0000
vn -0.0233 -0.2244 -0.9742
vn -0.0638 -0.9069 -0.4164
vn 0.0435 -0.8334 -0.5510
vn 0.4144 -0.0000 -0.9101
vn -0.0000 -0.0000 -1.0000
vn 0.0435 0.8334 -0.5510
vn -0.0638 0.9069 -0.4164
vn -0.3806 -0.0000 -0.9248
vn -0.0233 0.2244 -0.9742
vn -0.0977 0.9952 -0.0000
vn 0.2610 -0.6010 -0.7554
vn 0.2610 0.6010 -0.7554
vn 0.0722 0.2274 -0.9711
vn 0.2990 0.9543 -0.0000
vn 0.0722 -0.2274 -0.9711
vn 0.2990 -0.9543 -0.0000
vt 0.601124 1.000000
vt 0.625000 1.000000
vt 0.601124 0.088294
vt 0.625000 0.088294
vt 0.625000 0.143965
vt 0.601124 0.143965
vt 0.601124 0.250000
vt 0.625000 0.250000
vt 0.573937 0.263994
vt 0.439303 0.254523
vt 0.561020 0.139948
vt 0.564891 0.078266
vt 0.601124 0.000000
vt 0.564085 -0.001614
vt 0.875000 0.606035
vt 0.875000 0.661706
vt 0.000000 0.000000
s 0
f 3/1/1 19/1/1 20/2/1 4/2/1
f 10/3/2 7/4/2 5/5/2 9/6/2
f 24/7/3 8/7/3 6/8/3 22/8/3
f 11/9/4 27/9/4 32/10/4 16/10/4
f 9/6/5 12/11/5 13/12/5 10/3/5
f 8/7/6 24/7/6 27/9/6 11/9/6
f 19/13/7 3/13/7 14/14/7 30/14/7
f 21/15/8 5/15/8 7/16/8 23/16/8
f 26/3/9 25/6/9 21/5/9 23/4/9
f 25/6/10 26/3/10 29/12/10 28/11/10
f 8/7/11 9/6/11 5/5/11 6/8/11
f 11/9/12 12/11/12 9/6/12 8/7/12
f 16/10/13 15/17/13 12/11/13 11/9/13
f 12/11/14 15/17/14 2/17/14 13/12/14
f 14/14/15 1/17/15 17/17/15 30/14/15
f 17/17/16 1/17/16 2/17/16 18/17/16
f 15/17/16 31/17/16 18/17/16 2/17/16
f 28/11/17 29/12/17 18/17/17 31/17/17
f 27/9/18 28/11/18 31/17/18 32/10/18
f 15/17/19 16/10/19 32/10/19 31/17/19
f 27/9/20 24/7/20 25/6/20 28/11/20
f 24/7/21 22/8/21 21/5/21 25/6/21
f 5/5/8 21/5/8 22/8/8 6/8/8
f 14/14/22 13/12/22 2/17/22 1/17/22
f 17/17/23 18/17/23 29/12/23 30/14/23
f 19/13/24 30/14/24 29/12/24 26/3/24
f 19/13/25 26/3/25 23/4/25 20/2/25
f 13/12/26 14/14/26 3/13/26 10/3/26
f 3/13/27 4/2/27 7/4/27 10/3/27
f 23/4/8 7/4/8 4/2/8 20/2/8
