<svg xmlns="http://www.w3.org/2000/svg" viewBox="0 0 860 420" width="860" height="420" role="img" aria-label="Frame period under a stepping fleet">
<style>
  .bg{fill:#ffffff}
  .frame{stroke:#94a3b8;stroke-width:1;fill:none}
  .grid{stroke:#e2e8f0;stroke-width:1}
  .tick{fill:#475569;font:11px sans-serif}
  .axis{fill:#334155;font:12px sans-serif}
  .title{fill:#0f172a;font:bold 15px sans-serif}
  .rule{stroke:#64748b;stroke-width:1.5;stroke-dasharray:6 4}
  .rulelab{fill:#475569;font:italic 11px sans-serif}
  .legend{fill:#334155;font:12px sans-serif}
  @media (prefers-color-scheme: dark){
    .bg{fill:#0b1120}
    .frame{stroke:#475569}
    .grid{stroke:#1e293b}
    .tick{fill:#94a3b8}
    .axis{fill:#cbd5e1}
    .title{fill:#f1f5f9}
    .rule{stroke:#94a3b8}
    .rulelab{fill:#94a3b8}
    .legend{fill:#cbd5e1}
  }
</style>
<rect class="bg" x="0" y="0" width="860" height="420"/>
<text class="title" x="72.0" y="28">Frame period under a stepping fleet</text>
<line class="grid" x1="72.0" y1="358.0" x2="670.0" y2="358.0"/>
<text class="tick" x="64.0" y="362.0" text-anchor="end">124.8</text>
<line class="grid" x1="72.0" y1="296.8" x2="670.0" y2="296.8"/>
<text class="tick" x="64.0" y="300.8" text-anchor="end">124.9</text>
<line class="grid" x1="72.0" y1="235.6" x2="670.0" y2="235.6"/>
<text class="tick" x="64.0" y="239.6" text-anchor="end">125</text>
<line class="grid" x1="72.0" y1="174.4" x2="670.0" y2="174.4"/>
<text class="tick" x="64.0" y="178.4" text-anchor="end">125</text>
<line class="grid" x1="72.0" y1="113.2" x2="670.0" y2="113.2"/>
<text class="tick" x="64.0" y="117.2" text-anchor="end">125.1</text>
<line class="grid" x1="72.0" y1="52.0" x2="670.0" y2="52.0"/>
<text class="tick" x="64.0" y="56.0" text-anchor="end">125.2</text>
<line class="grid" x1="72.0" y1="52.0" x2="72.0" y2="358.0"/>
<text class="tick" x="72.0" y="376.0" text-anchor="middle">1</text>
<line class="grid" x1="171.7" y1="52.0" x2="171.7" y2="358.0"/>
<text class="tick" x="171.7" y="376.0" text-anchor="middle">14</text>
<line class="grid" x1="271.3" y1="52.0" x2="271.3" y2="358.0"/>
<text class="tick" x="271.3" y="376.0" text-anchor="middle">27</text>
<line class="grid" x1="371.0" y1="52.0" x2="371.0" y2="358.0"/>
<text class="tick" x="371.0" y="376.0" text-anchor="middle">40</text>
<line class="grid" x1="470.7" y1="52.0" x2="470.7" y2="358.0"/>
<text class="tick" x="470.7" y="376.0" text-anchor="middle">53</text>
<line class="grid" x1="570.3" y1="52.0" x2="570.3" y2="358.0"/>
<text class="tick" x="570.3" y="376.0" text-anchor="middle">66</text>
<line class="grid" x1="670.0" y1="52.0" x2="670.0" y2="358.0"/>
<text class="tick" x="670.0" y="376.0" text-anchor="middle">79</text>
<rect class="frame" x="72.0" y="52.0" width="598.0" height="306.0"/>
<text class="axis" x="371.0" y="402.0" text-anchor="middle">frame</text>
<text class="axis" x="22.0" y="205.0" text-anchor="middle" transform="rotate(-90 22.0 205.0)">period (ms)</text>
<line class="rule" x1="72.0" y1="219.4" x2="670.0" y2="219.4"/>
<text class="rulelab" x="678.0" y="223.4">125 ms deadline (Sec. IV)</text>
<polyline fill="none" stroke="#2563eb" stroke-width="2" stroke-linejoin="round" points="72.00,320.76 79.67,130.77 87.33,290.26 95.00,242.98 102.67,200.61 110.33,167.95 118.00,291.04 125.67,218.59 133.33,153.81 141.00,160.38 148.67,320.03 156.33,133.13 164.00,310.21 171.67,153.40 179.33,280.06 187.00,227.80 194.67,217.58 202.33,217.84 210.00,222.77 217.67,117.38 225.33,320.34 233.00,161.50 240.67,196.06 248.33,288.05 256.00,205.26 263.67,183.96 271.33,301.36 279.00,214.00 286.67,194.14 294.33,157.51 302.00,311.33 309.67,181.51 317.33,233.35 325.00,133.24 332.67,249.08 340.33,192.10 348.00,244.93 355.67,214.25 363.33,279.09 371.00,238.35 378.67,73.10 386.33,298.78 394.00,155.66 401.67,336.90 409.33,227.91 417.00,204.21 424.67,220.44 432.33,188.25 440.00,194.60 447.67,208.07 455.33,246.36 463.00,288.75 470.67,214.16 478.33,220.85 486.00,211.07 493.67,235.77 501.33,209.00 509.00,219.92 516.67,200.51 524.33,219.33 532.00,237.53 539.67,218.82 547.33,222.34 555.00,220.76 562.67,213.74 570.33,214.73 578.00,224.41 585.67,202.78 593.33,167.32 601.00,191.64 608.67,249.99 616.33,283.86 624.00,215.53 631.67,223.18 639.33,209.34 647.00,225.71 654.67,235.81 662.33,141.98 670.00,282.17 "/>
<rect x="680.0" y="54.0" width="12" height="12" fill="#2563eb"/>
<text class="legend" x="698.0" y="64.0">measured period</text>
</svg>
