<svg xmlns="http://www.w3.org/2000/svg" viewBox="0 0 860 420" width="860" height="420" role="img" aria-label="Frame period under a stepping fleet">
<style>
  .bg{fill:#ffffff}
  .frame{stroke:#94a3b8;stroke-width:1;fill:none}
  .grid{stroke:#e2e8f0;stroke-width:1}
  .tick{fill:#475569;font:11px sans-serif}
  .axis{fill:#334155;font:12px sans-serif}
  .title{fill:#0f172a;font:bold 15px sans-serif}
  .rule{stroke:#64748b;stroke-width:1.5;stroke-dasharray:6 4}
  .rulelab{fill:#475569;font:italic 11px sans-serif}
  .legend{fill:#334155;font:12px sans-serif}
  @media (prefers-color-scheme: dark){
    .bg{fill:#0b1120}
    .frame{stroke:#475569}
    .grid{stroke:#1e293b}
    .tick{fill:#94a3b8}
    .axis{fill:#cbd5e1}
    .title{fill:#f1f5f9}
    .rule{stroke:#94a3b8}
    .rulelab{fill:#94a3b8}
    .legend{fill:#cbd5e1}
  }
</style>
<rect class="bg" x="0" y="0" width="860" height="420"/>
<text class="title" x="72.0" y="28">Frame period under a stepping fleet</text>
<line class="grid" x1="72.0" y1="358.0" x2="670.0" y2="358.0"/>
<text class="tick" x="64.0" y="362.0" text-anchor="end">124.8</text>
<line class="grid" x1="72.0" y1="296.8" x2="670.0" y2="296.8"/>
<text class="tick" x="64.0" y="300.8" text-anchor="end">124.9</text>
<line class="grid" x1="72.0" y1="235.6" x2="670.0" y2="235.6"/>
<text class="tick" x="64.0" y="239.6" text-anchor="end">125</text>
<line class="grid" x1="72.0" y1="174.4" x2="670.0" y2="174.4"/>
<text class="tick" x="64.0" y="178.4" text-anchor="end">125</text>
<line class="grid" x1="72.0" y1="113.2" x2="670.0" y2="113.2"/>
<text class="tick" x="64.0" y="117.2" text-anchor="end">125.1</text>
<line class="grid" x1="72.0" y1="52.0" x2="670.0" y2="52.0"/>
<text class="tick" x="64.0" y="56.0" text-anchor="end">125.2</text>
<line class="grid" x1="72.0" y1="52.0" x2="72.0" y2="358.0"/>
<text class="tick" x="72.0" y="376.0" text-anchor="middle">1</text>
<line class="grid" x1="171.7" y1="52.0" x2="171.7" y2="358.0"/>
<text class="tick" x="171.7" y="376.0" text-anchor="middle">14</text>
<line class="grid" x1="271.3" y1="52.0" x2="271.3" y2="358.0"/>
<text class="tick" x="271.3" y="376.0" text-anchor="middle">27</text>
<line class="grid" x1="371.0" y1="52.0" x2="371.0" y2="358.0"/>
<text class="tick" x="371.0" y="376.0" text-anchor="middle">40</text>
<line class="grid" x1="470.7" y1="52.0" x2="470.7" y2="358.0"/>
<text class="tick" x="470.7" y="376.0" text-anchor="middle">53</text>
<line class="grid" x1="570.3" y1="52.0" x2="570.3" y2="358.0"/>
<text class="tick" x="570.3" y="376.0" text-anchor="middle">66</text>
<line class="grid" x1="670.0" y1="52.0" x2="670.0" y2="358.0"/>
<text class="tick" x="670.0" y="376.0" text-anchor="middle">79</text>
<rect class="frame" x="72.0" y="52.0" width="598.0" height="306.0"/>
<text class="axis" x="371.0" y="402.0" text-anchor="middle">frame</text>
<text class="axis" x="22.0" y="205.0" text-anchor="middle" transform="rotate(-90 22.0 205.0)">period (ms)</text>
<line class="rule" x1="72.0" y1="202.3" x2="670.0" y2="202.3"/>
<text class="rulelab" x="678.0" y="206.3">125 ms deadline (Sec. IV)</text>
<polyline fill="none" stroke="#2563eb" stroke-width="2" stroke-linejoin="round" points="72.00,241.76 79.67,258.90 87.33,135.36 95.00,260.05 102.67,98.75 110.33,309.76 118.00,73.10 125.67,336.90 133.33,80.28 141.00,242.51 148.67,182.06 156.33,267.19 164.00,232.79 171.67,224.30 179.33,186.12 187.00,126.92 194.67,292.65 202.33,189.62 210.00,195.76 217.67,76.06 225.33,192.61 233.00,250.56 240.67,283.68 248.33,200.79 256.00,91.77 263.67,312.67 271.33,212.72 279.00,209.25 286.67,139.45 294.33,256.17 302.00,213.32 309.67,204.73 317.33,203.08 325.00,192.33 332.67,194.26 340.33,227.25 348.00,195.30 355.67,210.10 363.33,129.21 371.00,232.89 378.67,246.66 386.33,191.48 394.00,118.26 401.67,268.80 409.33,205.40 417.00,215.63 424.67,190.27 432.33,215.67 440.00,204.08 447.67,211.69 455.33,187.82 463.00,101.27 470.67,296.33 478.33,110.42 486.00,236.70 493.67,280.84 501.33,187.96 509.00,205.21 516.67,204.13 524.33,166.81 532.00,241.60 539.67,203.86 547.33,108.04 555.00,274.50 562.67,206.84 570.33,206.78 578.00,210.08 585.67,95.87 593.33,296.99 601.00,113.24 608.67,278.79 616.33,87.25 624.00,332.18 631.67,197.93 639.33,143.98 647.00,154.38 654.67,311.69 662.33,188.53 670.00,92.24 "/>
<rect x="680.0" y="54.0" width="12" height="12" fill="#2563eb"/>
<text class="legend" x="698.0" y="64.0">measured period</text>
</svg>
