<svg xmlns="http://www.w3.org/2000/svg" viewBox="0 0 860 420" width="860" height="420" role="img" aria-label="Frame period under a stepping fleet">
<style>
  .bg{fill:#ffffff}
  .frame{stroke:#94a3b8;stroke-width:1;fill:none}
  .grid{stroke:#e2e8f0;stroke-width:1}
  .tick{fill:#475569;font:11px sans-serif}
  .axis{fill:#334155;font:12px sans-serif}
  .title{fill:#0f172a;font:bold 15px sans-serif}
  .rule{stroke:#64748b;stroke-width:1.5;stroke-dasharray:6 4}
  .rulelab{fill:#475569;font:italic 11px sans-serif}
  .legend{fill:#334155;font:12px sans-serif}
  @media (prefers-color-scheme: dark){
    .bg{fill:#0b1120}
    .frame{stroke:#475569}
    .grid{stroke:#1e293b}
    .tick{fill:#94a3b8}
    .axis{fill:#cbd5e1}
    .title{fill:#f1f5f9}
    .rule{stroke:#94a3b8}
    .rulelab{fill:#94a3b8}
    .legend{fill:#cbd5e1}
  }
</style>
<rect class="bg" x="0" y="0" width="860" height="420"/>
<text class="title" x="72.0" y="28">Frame period under a stepping fleet</text>
<line class="grid" x1="72.0" y1="358.0" x2="670.0" y2="358.0"/>
<text class="tick" x="64.0" y="362.0" text-anchor="end">122.9</text>
<line class="grid" x1="72.0" y1="296.8" x2="670.0" y2="296.8"/>
<text class="tick" x="64.0" y="300.8" text-anchor="end">123.7</text>
<line class="grid" x1="72.0" y1="235.6" x2="670.0" y2="235.6"/>
<text class="tick" x="64.0" y="239.6" text-anchor="end">124.6</text>
<line class="grid" x1="72.0" y1="174.4" x2="670.0" y2="174.4"/>
<text class="tick" x="64.0" y="178.4" text-anchor="end">125.5</text>
<line class="grid" x1="72.0" y1="113.2" x2="670.0" y2="113.2"/>
<text class="tick" x="64.0" y="117.2" text-anchor="end">126.3</text>
<line class="grid" x1="72.0" y1="52.0" x2="670.0" y2="52.0"/>
<text class="tick" x="64.0" y="56.0" text-anchor="end">127.2</text>
<line class="grid" x1="72.0" y1="52.0" x2="72.0" y2="358.0"/>
<text class="tick" x="72.0" y="376.0" text-anchor="middle">1</text>
<line class="grid" x1="171.7" y1="52.0" x2="171.7" y2="358.0"/>
<text class="tick" x="171.7" y="376.0" text-anchor="middle">14</text>
<line class="grid" x1="271.3" y1="52.0" x2="271.3" y2="358.0"/>
<text class="tick" x="271.3" y="376.0" text-anchor="middle">27</text>
<line class="grid" x1="371.0" y1="52.0" x2="371.0" y2="358.0"/>
<text class="tick" x="371.0" y="376.0" text-anchor="middle">40</text>
<line class="grid" x1="470.7" y1="52.0" x2="470.7" y2="358.0"/>
<text class="tick" x="470.7" y="376.0" text-anchor="middle">53</text>
<line class="grid" x1="570.3" y1="52.0" x2="570.3" y2="358.0"/>
<text class="tick" x="570.3" y="376.0" text-anchor="middle">66</text>
<line class="grid" x1="670.0" y1="52.0" x2="670.0" y2="358.0"/>
<text class="tick" x="670.0" y="376.0" text-anchor="middle">79</text>
<rect class="frame" x="72.0" y="52.0" width="598.0" height="306.0"/>
<text class="axis" x="371.0" y="402.0" text-anchor="middle">frame</text>
<text class="axis" x="22.0" y="205.0" text-anchor="middle" transform="rotate(-90 22.0 205.0)">period (ms)</text>
<line class="rule" x1="72.0" y1="206.4" x2="670.0" y2="206.4"/>
<text class="rulelab" x="678.0" y="210.4">125 ms deadline (Sec. IV)</text>
<polyline fill="none" stroke="#2563eb" stroke-width="2" stroke-linejoin="round" points="72.00,207.05 79.67,214.59 87.33,195.47 95.00,211.62 102.67,211.53 110.33,206.95 118.00,201.16 125.67,211.49 133.33,206.50 141.00,197.64 148.67,210.26 156.33,211.77 164.00,206.34 171.67,198.35 179.33,207.62 187.00,213.21 194.67,206.61 202.33,201.20 210.00,204.56 217.67,213.35 225.33,205.44 233.00,206.88 240.67,199.84 248.33,212.96 256.00,206.41 263.67,206.59 271.33,206.13 279.00,206.51 286.67,205.74 294.33,204.18 302.00,206.05 309.67,199.53 317.33,211.49 325.00,205.79 332.67,208.84 340.33,207.39 348.00,205.33 355.67,137.28 363.33,274.55 371.00,211.12 378.67,198.46 386.33,208.50 394.00,209.78 401.67,202.61 409.33,211.87 417.00,206.39 424.67,206.96 432.33,206.14 440.00,204.39 447.67,202.59 455.33,212.56 463.00,206.23 470.67,206.36 478.33,204.20 486.00,208.64 493.67,206.25 501.33,206.89 509.00,198.36 516.67,213.74 524.33,206.42 532.00,199.29 539.67,214.74 547.33,206.30 555.00,73.10 562.67,336.90 570.33,206.04 578.00,202.52 585.67,205.70 593.33,213.16 601.00,206.45 608.67,206.67 616.33,205.93 624.00,206.47 631.67,206.80 639.33,206.45 647.00,205.94 654.67,207.09 662.33,206.39 670.00,205.69 "/>
<rect x="680.0" y="54.0" width="12" height="12" fill="#2563eb"/>
<text class="legend" x="698.0" y="64.0">measured period</text>
</svg>
